<?xml version="1.0" standalone="no"?>
<!DOCTYPE svg PUBLIC "-//W3C//DTD SVG 20010904//EN"
 "http://www.w3.org/TR/2001/REC-SVG-20010904/DTD/svg10.dtd">
<svg version="1.0" xmlns="http://www.w3.org/2000/svg"
 width="512.000000pt" height="512.000000pt" viewBox="0 0 512.000000 512.000000"
 preserveAspectRatio="xMidYMid meet">
<metadata>
Created by potrace 1.11, written by Peter Selinger 2001-2013
</metadata>
<g transform="translate(0.000000,512.000000) scale(0.100000,-0.100000)"
fill="#000000" stroke="none">
<path d="M2769 5115 c-2 -2 -35 -6 -74 -9 -38 -4 -81 -8 -95 -11 -14 -2 -41
-7 -60 -10 -44 -7 -74 -13 -77 -15 -2 -2 -7 -4 -13 -5 -5 -1 -11 -3 -12 -5 -2
-1 -12 -3 -23 -4 -55 -8 -260 -90 -353 -142 -160 -90 -334 -234 -444 -368 -10
-12 -21 -26 -26 -31 -40 -48 -137 -228 -147 -273 -2 -9 -12 -44 -21 -77 -20
-67 -25 -284 -10 -370 5 -27 9 -58 10 -67 0 -10 5 -18 10 -18 5 0 7 -2 4 -5
-7 -8 23 -105 57 -180 32 -74 130 -251 146 -265 3 -3 21 -27 39 -55 99 -147
290 -356 480 -525 40 -36 78 -69 84 -75 55 -50 298 -236 435 -333 132 -93 285
-237 395 -372 53 -66 132 -203 128 -223 -1 -4 3 -7 9 -7 5 0 7 -4 4 -10 -3 -5
-1 -10 6 -10 7 0 10 -3 6 -6 -3 -4 0 -19 9 -35 8 -16 12 -29 10 -29 -3 0 0
-15 6 -32 14 -44 19 -220 6 -235 -6 -7 -8 -13 -4 -13 3 0 -1 -17 -9 -37 -9
-21 -15 -38 -14 -38 1 0 -8 -19 -20 -42 -24 -48 -119 -153 -138 -153 -7 0 -13
-4 -13 -8 0 -11 -116 -68 -165 -81 -146 -38 -388 -45 -565 -17 -14 2 -44 7
-67 10 -23 3 -79 20 -125 37 -46 16 -89 31 -95 31 -7 1 -13 5 -13 10 0 4 -6 8
-12 8 -7 0 -47 22 -88 48 -134 86 -246 215 -313 361 -35 75 -31 64 -56 156
-11 39 -20 80 -20 93 -1 12 -6 22 -11 22 -6 0 -76 -25 -155 -56 -79 -31 -150
-57 -157 -58 -7 -2 -26 -9 -43 -16 -16 -7 -33 -14 -37 -15 -5 -2 -11 -4 -15
-5 -5 -1 -11 -2 -15 -1 -5 0 -8 -4 -8 -9 0 -5 -3 -9 -7 -8 -5 2 -55 -15 -111
-36 -129 -49 -132 -54 -107 -166 10 -44 22 -80 27 -80 4 0 8 -8 8 -17 0 -23
90 -189 155 -287 85 -128 181 -242 296 -356 121 -120 130 -128 219 -195 36
-28 67 -52 70 -55 3 -3 14 -10 25 -17 11 -6 58 -35 105 -64 47 -28 91 -52 98
-52 6 0 12 -4 12 -8 0 -9 228 -102 315 -128 70 -20 104 -28 160 -37 17 -2 41
-7 55 -10 74 -17 342 -23 490 -12 41 4 75 7 75 8 0 1 11 3 25 4 25 3 117 17
135 22 6 1 24 5 40 9 17 3 35 7 40 8 6 2 16 6 23 10 6 5 12 6 12 3 0 -6 143
43 214 74 26 11 47 18 49 17 5 -4 183 109 205 130 7 7 16 13 20 13 14 0 160
148 203 206 84 111 117 168 192 334 16 34 75 207 83 242 2 10 6 28 9 40 27
112 27 286 1 408 -3 14 -8 37 -12 52 -3 15 -5 29 -4 30 1 2 -4 17 -10 33 -7
17 -13 38 -15 48 -7 34 -117 282 -129 289 -6 4 -8 8 -3 8 22 0 -210 341 -303
444 -153 169 -362 353 -545 478 -22 15 -56 41 -75 58 -19 16 -39 30 -43 30 -5
0 -14 6 -21 13 -7 6 -26 22 -42 34 -16 11 -60 44 -97 72 -37 28 -70 51 -72 51
-2 0 -14 9 -27 20 -12 11 -61 50 -108 87 -183 146 -279 261 -311 373 -7 25
-17 51 -22 58 -5 6 -6 12 -1 12 5 0 8 20 8 45 -2 65 14 141 47 223 84 210 265
351 499 388 100 15 300 3 405 -25 22 -5 55 -13 74 -16 19 -3 43 -11 55 -17 11
-6 23 -11 26 -10 16 5 301 -107 312 -123 4 -5 8 -7 8 -2 0 4 14 1 30 -8 29
-15 30 -15 31 7 0 13 2 32 4 43 2 11 6 39 9 63 4 23 9 63 13 90 3 26 7 61 9
77 1 17 3 30 4 30 2 0 8 36 14 100 7 58 13 109 20 162 3 21 8 59 11 84 l6 47
-38 12 c-21 7 -42 16 -48 20 -16 12 -252 89 -355 116 -87 23 -132 32 -185 40
-11 1 -20 3 -20 4 0 4 -56 11 -190 26 -56 6 -372 14 -376 9z"/>
</g>
</svg>
